<?xml version="1.0" encoding="UTF-8"?>
<svg enable-background="new 0 0 140 35" version="1.1" viewBox="0 0 140 35" xml:space="preserve" xmlns="http://www.w3.org/2000/svg">
<style type="text/css">
	.st0{fill:#FFFFFF;}
</style>
<path class="st0" d="m21.9 31.24l-0.89 0.02 0.18-0.55-0.69 0.62 0.05-0.6-0.33 0.48-0.02-1.03-0.33 1.13-0.24-1.01-0.14 0.91c-0.86 0.42-1.42 0.04-2.12 0.05l-0.04-0.46-0.16 0.5-0.14-0.84-0.03 0.83-0.13-0.53-0.04 0.36h-0.42l-0.25-0.65-0.29-1.03-0.1-7.04 0.39 0.29 0.38-0.29 0.38 0.29 0.8-0.07v-0.43l0.82 0.12 0.13-0.36 0.36-0.02s0.42 0.12 0.43-0.12c0.02-0.24-0.07-0.48 0.07-0.43s0.43 0.19 0.58 0.19c0.14 0 0.74-0.41 0.74-0.55s-0.22-0.46 0-0.55c0.22-0.1 0.6-0.36 0.6-0.36l-0.11-0.58 0.09-0.46 0.16-0.34s-0.25-0.19-0.29-0.5 0-0.72 0-0.72 0.16-0.48 0-0.67-0.45-0.43-0.63-0.77-0.72-0.96-0.72-0.96l-0.02-0.94 0.09-0.75s-0.18-0.31-0.2-0.46c-0.02-0.14-0.02-0.67-0.02-0.67l-0.34-0.07-0.31-0.48s-0.45-0.1-0.56-0.1-0.4-0.07-0.4-0.41 0.22-0.75-0.02-0.84c-0.24-0.1-0.69-0.24-0.69-0.38s-0.18-1.27-0.18-1.27l-0.45-0.46-0.74-1.83s-0.43-0.38-0.47-0.5-0.02-0.46-0.11-0.53-0.45-0.17-0.45-0.17l-0.18-0.73-0.36 0.19s-0.18-0.19-0.25-0.19-0.36 0.14-0.36 0.14l0.11 0.31s0.09 0.26 0.02 0.31-0.51 0.31-0.51 0.31l0.09 0.77-0.09 0.72s-0.04-0.02-0.24 0-0.27 0.17-0.27 0.17l0.16 0.72s-0.24 0.43-0.31 0.43h-0.38l-0.11 0.66 0.04 0.62-0.27 0.38-0.05 0.31-0.27-0.1-0.14 0.05-0.09 0.41s-0.25 0.17-0.38 0.22-0.67 0.14-0.67 0.14l-0.02 0.67-0.45 0.58-0.07 0.58-0.43 0.43 0.05 0.67-0.62 0.62-0.29 0.65-0.25 0.41v0.22l0.07 0.79 0.22 0.46 0.18 0.12s-0.02 0.89-0.11 0.94-0.29 0.22-0.22 0.29 0.34 0.6 0.34 0.6l0.02 0.84s0.49-0.1 0.56 0.1c0.07 0.19 0.18 0.75 0.25 0.75s0.54 0.31 0.54 0.31 0.38 0.65 0.47 0.65 0.71 0.05 0.78 0.07 1 0.58 1 0.58l0.71-0.29 0.47 0.1v6.36l-0.2 1.27-0.24 0.79-0.65 0.67-0.27-0.53-0.11 0.46-0.24-0.43 0.09 0.5-0.47 0.13h-0.62l-0.03-0.7-0.16 0.7h-0.09l-0.15-0.25-0.1 0.25h-0.09l-0.01-0.56-0.2 0.56h-0.68l-0.1-0.68-0.03 0.68h-0.09l-0.25-0.44v0.44h-0.7-1.08-2.05c5.95 4.93 13.85 4.5 18.69 0h-2.33c0.1-0.06 0.19-0.13 0.29-0.21zm-9-12.9c-0.19 0.05-0.63 0.2-0.75 0.27-0.11 0.06-0.21 0.07-0.26 0.04-0.07-0.04-0.06-0.11 0.02-0.19 0.04-0.05 0.07-0.11 0.07-0.16 0-0.07-0.01-0.09-0.07-0.09-0.18 0-0.25-0.27-0.11-0.42 0.06-0.07 0.07-0.09 0.04-0.16-0.02-0.05-0.06-0.08-0.12-0.08-0.13-0.01-0.16-0.08-0.1-0.23l0.05-0.12-0.08-0.2c-0.05-0.11-0.14-0.32-0.19-0.47-0.09-0.24-0.1-0.26-0.16-0.25-0.08 0.02-0.24-0.05-0.3-0.14-0.03-0.04-0.05-0.13-0.05-0.2 0-0.1 0.02-0.14 0.09-0.22l0.09-0.1-0.09-0.3c-0.05-0.16-0.09-0.33-0.1-0.37 0-0.04-0.03-0.13-0.07-0.19-0.08-0.14-0.09-0.33-0.03-0.42 0.02-0.04 0.09-0.08 0.14-0.1 0.13-0.04 0.24 0.01 0.29 0.14 0.04 0.08 0.06 0.1 0.14 0.1 0.06 0 0.12 0.02 0.15 0.06 0.06 0.07 0.06 0.31-0.01 0.64-0.03 0.15-0.05 0.27-0.05 0.28 0.01 0.01 0.06-0.08 0.12-0.19 0.19-0.35 0.32-0.42 0.48-0.3 0.05 0.04 0.11 0.07 0.15 0.06 0.08-0.02 0.24 0.16 0.28 0.31 0.06 0.23 0.03 0.45-0.1 0.63-0.04 0.05-0.07 0.13-0.07 0.17 0 0.1-0.07 0.24-0.13 0.26-0.08 0.03-0.25 0.02-0.37-0.03s-0.12-0.05-0.16 0.01c-0.04 0.05-0.03 0.07 0.06 0.15 0.13 0.12 0.31 0.19 0.52 0.19 0.3 0 0.53-0.16 0.67-0.46 0.16-0.34 0.14-0.57-0.06-0.64-0.08-0.03-0.08-0.03-0.04-0.11 0.02-0.05 0.06-0.09 0.07-0.1 0.02-0.01 0.01-0.06-0.03-0.17-0.09-0.22-0.1-0.61-0.01-0.77 0.05-0.09 0.05-0.12 0.02-0.2-0.05-0.12 0-0.23 0.1-0.24s0.17 0.07 0.15 0.19c-0.01 0.06 0 0.09 0.02 0.13 0.11 0.08 0.2 0.26 0.23 0.5 0.02 0.17 0 0.34-0.04 0.46 0 0.02 0.01 0.03 0.05 0.03s0.09 0.02 0.13 0.04c0.06 0.03 0.06 0.04 0.02 0.08-0.06 0.05-0.11 0.17-0.14 0.3-0.04 0.25 0.34 0.62 0.63 0.62 0.13 0 0.37-0.13 0.47-0.27 0.11-0.15 0.2-0.37 0.22-0.56l0.02-0.15-0.19 0.1c-0.22 0.12-0.25 0.12-0.33 0.03-0.04-0.04-0.11-0.09-0.17-0.13-0.13-0.07-0.23-0.24-0.25-0.44-0.02-0.14 0.03-0.27 0.16-0.5 0.18-0.29 0.27-0.33 0.51-0.2l0.14 0.07s-0.04-0.11-0.1-0.25-0.1-0.3-0.1-0.36c0-0.1 0.01-0.13 0.09-0.18 0.07-0.05 0.09-0.09 0.11-0.2 0.02-0.17 0.1-0.28 0.25-0.33 0.1-0.03 0.13-0.03 0.21 0 0.16 0.07 0.27 0.22 0.3 0.39 0.02 0.13 0.03 0.15 0.1 0.18 0.14 0.06 0.13 0.13-0.1 0.71-0.01 0.02 0.05 0.01 0.12-0.04 0.22-0.12 0.36-0.09 0.44 0.1 0.03 0.06 0.08 0.15 0.13 0.2 0.2 0.24 0.11 0.68-0.16 0.83-0.06 0.03-0.13 0.09-0.16 0.13-0.07 0.09-0.16 0.08-0.33-0.01-0.11-0.06-0.15-0.07-0.17-0.04-0.06 0.09 0.09 0.48 0.25 0.66 0.32 0.35 0.71 0.28 1.01-0.18 0.08-0.12 0.06-0.29-0.04-0.46-0.07-0.11-0.07-0.11-0.01-0.14 0.03-0.02 0.08-0.03 0.12-0.03 0.07 0 0.07 0 0.04-0.15-0.05-0.26 0.06-0.67 0.21-0.79 0.05-0.04 0.06-0.06 0.04-0.12-0.02-0.05-0.02-0.08 0.02-0.14 0.06-0.1 0.17-0.1 0.23 0 0.04 0.07 0.04 0.09 0.01 0.18-0.02 0.05-0.02 0.08-0.02 0.11 0.09 0.11 0.13 0.34 0.1 0.58-0.02 0.16-0.07 0.3-0.14 0.39 0 0.02 0.01 0.03 0.03 0.05 0.08 0.1 0.08 0.16 0.01 0.18-0.09 0.02-0.18 0.15-0.18 0.24 0 0.04 0.03 0.16 0.06 0.27 0.08 0.26 0.3 0.51 0.5 0.57 0.27 0.08 0.61 0 0.77-0.18 0.05-0.06 0.06-0.08 0.02-0.13s-0.04-0.05-0.15-0.01c-0.06 0.03-0.17 0.05-0.24 0.05-0.15 0-0.24-0.09-0.26-0.26-0.01-0.06-0.05-0.16-0.08-0.22-0.13-0.21-0.15-0.46-0.05-0.7 0.05-0.12 0.17-0.23 0.25-0.21 0.03 0.01 0.08-0.01 0.12-0.05 0.15-0.15 0.33-0.04 0.51 0.3 0.05 0.1 0.1 0.17 0.1 0.17 0.01-0.01-0.02-0.15-0.05-0.31-0.1-0.51-0.06-0.66 0.15-0.66 0.07 0 0.1-0.02 0.13-0.1 0.06-0.13 0.17-0.18 0.3-0.14 0.2 0.07 0.25 0.3 0.11 0.54-0.04 0.07-0.07 0.17-0.07 0.21s-0.04 0.2-0.09 0.36-0.08 0.29-0.07 0.29c0.05 0 0.11 0.21 0.1 0.31-0.02 0.12-0.14 0.26-0.22 0.26s-0.11 0.04-0.15 0.19c-0.02 0.07-0.1 0.28-0.19 0.47-0.14 0.33-0.15 0.36-0.11 0.42 0.09 0.13 0.04 0.26-0.1 0.26-0.06 0-0.09 0.02-0.12 0.1-0.03 0.09-0.03 0.1 0.01 0.15 0.12 0.12 0.07 0.39-0.07 0.43-0.09 0.02-0.09 0.11 0 0.23 0.04 0.05 0.07 0.11 0.07 0.14 0 0.1-0.1 0.1-0.33 0-0.76-0.32-1.26-0.41-2.49-0.44-1.09-0.02-1.72 0.03-2.34 0.19z"/>
<path class="st0" d="m22.27 22.53c-0.07-0.03-1.03-0.02-1.06 0.01-0.02 0.02 0 0.22 0.05 0.61 0.05 0.32 0.08 0.6 0.08 0.63 0 0.04-0.03 0.05-0.14 0.07-0.27 0.03-0.37 0.21-0.25 0.43 0.03 0.06 0.07 0.1 0.09 0.1s0 0.03-0.03 0.07c-0.07 0.08-0.08 0.15-0.01 0.29l0.05 0.11-0.17 0.18c-0.61 0.63-0.97 1.54-0.98 2.42 0 0.38 0.03 0.63 0.12 0.92 0.23 0.75 0.71 1.29 1.4 1.55 0.27 0.1 0.4 0.1 0.68-0.02 0.37-0.16 0.72-0.43 0.93-0.71 0.84-1.17 0.68-2.9-0.39-4.1l-0.22-0.25 0.06-0.13c0.06-0.12 0.06-0.13 0.01-0.22s-0.05-0.09 0.02-0.2c0.14-0.22 0.04-0.41-0.24-0.44-0.17-0.02-0.17 0.03-0.06-0.73 0.1-0.52 0.1-0.58 0.06-0.59z"/>
<path class="st0" d="m5.52 27.49c0.02 0.47 0.08 0.75 0.27 1.15 0.27 0.58 0.71 0.99 1.29 1.19 0.29 0.1 0.48 0.07 0.92-0.18 0.74-0.41 1.18-1.26 1.17-2.29 0-0.89-0.31-1.7-0.91-2.36l-0.23-0.26 0.05-0.1c0.06-0.13 0.07-0.22 0.01-0.28-0.04-0.04-0.04-0.06 0.03-0.16 0.1-0.16 0.09-0.29-0.04-0.38-0.05-0.04-0.13-0.07-0.18-0.07-0.17 0-0.17 0.01-0.08-0.67 0.05-0.34 0.08-0.63 0.07-0.63-0.05-0.06-1.05-0.04-1.1 0.01-0.01 0.02 0.01 0.28 0.06 0.65l0.09 0.62-0.1 0.02c-0.19 0.03-0.22 0.04-0.29 0.1-0.11 0.09-0.1 0.24 0.04 0.4 0.05 0.06 0.05 0.06 0 0.12-0.07 0.07-0.07 0.15 0 0.28l0.06 0.1-0.23 0.26c-0.62 0.68-0.93 1.54-0.9 2.48z"/>
<path class="st0" d="m4.2 2.35c0 0.02 0.03 0.19 0.08 0.37 0.06 0.26 0.09 0.33 0.12 0.32 0.02-0.01 0.14-0.03 0.25-0.05 0.2-0.03 0.5-0.02 0.73 0.02l0.1 0.02 0.08-0.36 0.08-0.36h-0.71c-0.56 0-0.73 0.01-0.73 0.04z"/>
<path class="st0" d="m14.55 0h-14.55v19.67c0.02 1.67 0.33 3.48 0.95 5.25l13.71-24.92h-0.11zm-6.32 9.51c-0.24 0.11-0.91 0.24-2.21 0.41-0.33 0.04-0.61 0.08-0.61 0.08s0.01 0.05 0.03 0.1c0.05 0.14-0.03 0.29-0.18 0.36-0.17 0.08-0.55 0.08-0.69 0-0.13-0.08-0.21-0.24-0.17-0.36 0.02-0.05 0.03-0.1 0.02-0.1-0.03-0.02-0.6-0.11-1.05-0.16-1.06-0.12-1.37-0.17-1.69-0.3l-0.21-0.09 0.21-0.26c0.27-0.33 0.43-0.59 0.63-1.01 0.16-0.34 0.19-0.42 0.4-1.03 0.27-0.77 0.34-1.22 0.37-2.19 0.02-0.59 0.04-0.73 0.08-0.89 0.13-0.4 0.38-0.68 0.84-0.89 0 0-0.07-0.26-0.16-0.58-0.09-0.31-0.17-0.59-0.17-0.61 0-0.03 0.25-0.04 1.26-0.04h1.26l-0.02 0.07c-0.13 0.42-0.32 1.11-0.32 1.14 0 0.02 0.03 0.05 0.06 0.06 0.12 0.04 0.43 0.28 0.53 0.4 0.24 0.32 0.3 0.56 0.32 1.39 0.02 0.86 0.09 1.31 0.33 2.03 0.35 1.05 0.65 1.64 1.09 2.17l0.19 0.22-0.14 0.08z"/>
<path class="st0" d="m14.66 0l13.57 24.7c0.57-1.7 0.86-3.42 0.88-5.02v-19.68h-14.45zm13.73 6.14c-0.11 0.07-0.17 0.08-0.38 0.09-0.23 0.01-0.28 0-0.51-0.08-0.14-0.05-0.26-0.09-0.27-0.09s-0.02 0.04-0.02 0.1c0 0.15-0.09 0.49-0.2 0.72-0.07 0.14-0.15 0.26-0.27 0.39-0.52 0.52-0.64 0.66-0.74 0.88-0.1 0.21-0.1 0.23-0.1 0.53v0.32l0.11 0.14c0.14 0.17 0.18 0.3 0.16 0.4-0.03 0.13-0.21 0.29-0.43 0.39-0.2 0.08-0.2 0.09-0.2 0.2 0 0.46-0.3 0.75-0.8 0.78-0.37 0.02-0.7 0.03-0.78 0.02-0.45-0.05-0.73-0.31-0.76-0.72l-0.01-0.17-0.21-0.09c-0.15-0.06-0.25-0.13-0.35-0.23-0.13-0.14-0.14-0.14-0.12-0.28 0.01-0.13 0.03-0.16 0.18-0.31l0.17-0.16-0.02-0.33c-0.03-0.48-0.08-0.57-0.61-1.13-0.37-0.39-0.44-0.47-0.53-0.67-0.09-0.21-0.18-0.55-0.18-0.7 0-0.06-0.01-0.06-0.42-0.05-0.77 0.03-1.06-0.09-0.99-0.4 0.05-0.22 0.62-0.69 1.71-1.43l0.23-0.16-0.13-0.11c-0.64-0.54-0.79-1.29-0.37-1.81 0.12-0.15 0.36-0.32 0.58-0.41 0.28-0.12 0.84-0.23 0.84-0.17 0 0.02-0.01 0.03-0.03 0.03-0.06 0-0.5 0.49-0.57 0.63-0.17 0.36-0.06 0.7 0.36 1.08l0.15 0.14 0.12-0.09 0.11-0.08 0.16 0.06 0.16 0.06 0.1-0.08 0.1-0.08 0.14 0.06c0.17 0.08 0.17 0.08 0.27 0 0.07-0.06 0.08-0.06 0.21-0.01s0.14 0.05 0.27 0c0.14-0.05 0.14-0.05 0.2 0.01 0.08 0.08 0.1 0.08 0.27 0l0.14-0.06 0.1 0.07 0.1 0.07 0.16-0.06 0.16-0.06 0.1 0.08 0.1 0.08 0.12-0.11c0.37-0.32 0.51-0.69 0.39-1.06-0.04-0.14-0.09-0.21-0.32-0.45l-0.27-0.29 0.12 0.01c0.25 0.03 0.64 0.14 0.82 0.23 0.25 0.13 0.51 0.39 0.62 0.61 0.07 0.15 0.08 0.2 0.08 0.45 0 0.27-0.01 0.3-0.11 0.51-0.11 0.23-0.36 0.53-0.53 0.64l-0.08 0.06c0 0.01 0.12 0.1 0.27 0.19 0.42 0.32 1.02 0.76 1.25 0.96s0.39 0.42 0.42 0.55c0.02 0.13-0.08 0.29-0.24 0.39z"/>
	<path class="st0" d="m136.24 11.26h3.76v12.51h-2.44v-8.46c0-0.24 0-0.58 0.01-1.02s0.01-0.78 0.01-1.01l-2.37 10.5h-2.54l-2.35-10.5c0 0.24 0 0.58 0.01 1.01 0.01 0.44 0.01 0.78 0.01 1.02v8.46h-2.44v-12.51h3.8l2.28 9.84 2.26-9.84z"/>
	<path class="st0" d="m118.97 11.26h2.96l4.43 12.51h-2.83l-0.83-2.57h-4.61l-0.85 2.57h-2.73l4.46-12.51zm-0.18 7.78h3.2l-1.58-4.92-1.62 4.92z"/>
	<path class="st0" d="m102.82 23.77v-12.51h2.6v4.77h4.86v-4.77h2.6v12.51h-2.6v-5.58h-4.86v5.58h-2.6z"/>
	<path class="st0" d="m100.5 13.48h-6.62v2.66h6.08v2.17h-6.08v3.22h6.92v2.25h-9.48v-12.52h9.17v2.22z"/>
	<path class="st0" d="m86.14 15.17c-0.2-0.85-0.68-1.45-1.45-1.79-0.43-0.19-0.91-0.28-1.43-0.28-1.01 0-1.83 0.38-2.48 1.14s-0.97 1.9-0.97 3.43c0 1.54 0.35 2.62 1.05 3.26s1.5 0.96 2.39 0.96c0.88 0 1.6-0.25 2.16-0.75s0.91-1.16 1.04-1.98h-2.89v-2.09h5.21v6.71h-1.73l-0.26-1.56c-0.5 0.59-0.96 1.01-1.36 1.25-0.69 0.42-1.54 0.63-2.55 0.63-1.66 0-3.02-0.57-4.07-1.72-1.1-1.15-1.65-2.73-1.65-4.73 0-2.02 0.56-3.65 1.67-4.87s2.59-1.83 4.42-1.83c1.59 0 2.87 0.4 3.83 1.21s1.52 1.81 1.66 3.02h-2.59z"/>
	<path class="st0" d="m73.84 22.66c-0.94 0.97-2.31 1.46-4.1 1.46s-3.15-0.49-4.1-1.46c-1.27-1.19-1.9-2.91-1.9-5.16 0-2.29 0.63-4.01 1.9-5.16 0.94-0.97 2.31-1.46 4.1-1.46s3.15 0.49 4.1 1.46c1.26 1.15 1.89 2.87 1.89 5.16 0 2.25-0.63 3.97-1.89 5.16zm-1.63-1.9c0.61-0.76 0.91-1.85 0.91-3.26 0-1.4-0.3-2.49-0.91-3.25-0.61-0.77-1.43-1.15-2.47-1.15s-1.86 0.38-2.48 1.15c-0.62 0.76-0.93 1.85-0.93 3.26s0.31 2.5 0.93 3.26 1.44 1.15 2.48 1.15c1.04-0.02 1.86-0.4 2.47-1.16z"/>
	<path class="st0" d="m59.67 11.58c0.46 0.2 0.85 0.49 1.17 0.87 0.26 0.32 0.47 0.67 0.63 1.05 0.15 0.38 0.23 0.82 0.23 1.32 0 0.59-0.15 1.18-0.45 1.75s-0.79 0.98-1.48 1.22c0.58 0.23 0.99 0.56 1.23 0.99s0.36 1.08 0.36 1.96v0.84c0 0.57 0.02 0.96 0.07 1.16 0.07 0.32 0.23 0.56 0.48 0.71v0.31h-2.89c-0.08-0.28-0.14-0.5-0.17-0.67-0.07-0.35-0.1-0.71-0.11-1.08l-0.02-1.16c-0.01-0.8-0.15-1.33-0.41-1.6s-0.76-0.4-1.49-0.4h-2.55v4.91h-2.55v-12.5h5.98c0.85 0.02 1.51 0.13 1.97 0.32zm-5.4 1.85v3.36h2.81c0.56 0 0.98-0.07 1.26-0.2 0.49-0.24 0.74-0.71 0.74-1.41 0-0.76-0.24-1.27-0.72-1.53-0.27-0.15-0.67-0.22-1.21-0.22h-2.88z"/>
	<path class="st0" d="m46.43 11.53c0.88 0.29 1.59 0.82 2.13 1.59 0.44 0.62 0.73 1.3 0.89 2.02s0.24 1.41 0.24 2.07c0 1.66-0.33 3.07-1 4.23-0.91 1.56-2.3 2.33-4.2 2.33h-5.39v-12.51h5.39c0.78 0.01 1.43 0.1 1.94 0.27zm-4.79 1.9v8.16h2.41c1.24 0 2.1-0.61 2.58-1.82 0.27-0.67 0.4-1.46 0.4-2.38 0-1.27-0.2-2.25-0.6-2.93s-1.19-1.02-2.38-1.02h-2.41z"/>
</svg>
